<?xml version="1.0" standalone="no"?>
<!DOCTYPE svg PUBLIC "-//W3C//DTD SVG 20010904//EN"
 "http://www.w3.org/TR/2001/REC-SVG-20010904/DTD/svg10.dtd">
<svg version="1.0" xmlns="http://www.w3.org/2000/svg"
 width="512.000000pt" height="512.000000pt" viewBox="0 0 512.000000 512.000000"
 preserveAspectRatio="xMidYMid meet">

<g transform="translate(0.000000,512.000000) scale(0.100000,-0.100000)"
fill="#000000" stroke="none">
<path d="M445 5108 c-27 -5 -86 -27 -131 -48 -152 -73 -274 -232 -303 -394
-15 -83 -15 -4129 0 -4212 35 -194 186 -361 389 -430 53 -18 129 -19 2160 -19
2031 0 2107 1 2160 19 137 46 235 121 309 235 65 101 82 166 88 324 l6 137
-81 0 -80 0 -4 -129 c-4 -124 -5 -131 -41 -203 -44 -91 -102 -147 -195 -191
l-67 -32 -687 -3 -688 -3 0 161 0 160 -80 0 -80 0 0 -160 0 -160 -320 0 -320
0 0 935 0 936 -25 24 -24 25 -296 0 -295 0 0 320 0 320 295 0 296 0 24 25 25
24 0 256 0 255 -80 0 -80 0 0 -200 0 -200 -295 0 -296 0 -24 -25 -25 -24 0
-431 0 -431 25 -24 24 -25 296 0 295 0 0 -880 0 -880 -927 2 -928 3 -67 32
c-93 44 -151 100 -196 191 l-37 76 0 2095 0 2096 32 67 c44 93 100 151 191
195 72 36 79 37 203 41 l129 4 0 79 0 79 -112 -1 c-62 -1 -135 -5 -163 -11z"/>
<path d="M880 5040 l0 -80 80 0 80 0 0 80 0 80 -80 0 -80 0 0 -80z"/>
<path d="M1200 5040 l0 -80 1723 -2 1722 -3 57 -28 c134 -66 219 -235 248
-492 6 -57 10 -722 10 -1822 l0 -1733 80 0 81 0 -4 1798 c-3 1786 -3 1798 -24
1892 -71 319 -209 492 -431 539 -38 8 -543 11 -1757 11 l-1705 0 0 -80z"/>
<path d="M3185 4304 c-153 -27 -319 -97 -436 -185 -81 -59 -185 -165 -241
-244 -56 -79 -58 -72 41 -127 l48 -28 35 53 c117 174 290 296 513 360 65 19
104 21 583 24 l512 4 0 -320 0 -320 -442 -3 -443 -3 -50 -25 c-64 -31 -124
-91 -155 -155 -24 -49 -25 -57 -28 -307 l-3 -258 25 -25 25 -25 527 0 526 0
-4 -22 c-2 -13 -31 -157 -63 -320 l-60 -298 -463 0 -463 0 -24 -25 -25 -24 0
-696 0 -695 80 0 80 0 0 640 0 640 454 0 c421 0 455 1 476 18 19 15 33 73 106
437 46 231 84 428 84 438 0 10 -11 29 -25 42 l-24 25 -536 0 -536 0 3 189 c3
207 6 216 72 265 27 20 42 21 518 26 l490 5 19 24 c18 22 19 45 19 453 l0 429
-25 24 -24 25 -543 -1 c-423 -1 -561 -4 -623 -15z"/>
<path d="M2377 3613 c-10 -17 -37 -118 -37 -139 0 -20 8 -24 71 -34 39 -7 73
-9 77 -6 11 12 39 137 30 142 -11 7 -120 44 -129 44 -4 0 -10 -3 -12 -7z"/>
</g>
</svg>
