<?xml version="1.0" standalone="no"?>
<!DOCTYPE svg PUBLIC "-//W3C//DTD SVG 20010904//EN"
 "http://www.w3.org/TR/2001/REC-SVG-20010904/DTD/svg10.dtd">
<svg version="1.0" xmlns="http://www.w3.org/2000/svg"
 width="512.000000pt" height="512.000000pt" viewBox="0 0 512.000000 512.000000"
 preserveAspectRatio="xMidYMid meet">

<g transform="translate(0.000000,512.000000) scale(0.100000,-0.100000)"
fill="#000000" stroke="none">
<path d="M520 5104 c-36 -7 -107 -34 -158 -59 -130 -65 -223 -157 -287 -287
-80 -164 -75 2 -75 -2198 0 -2200 -5 -2034 75 -2198 64 -130 157 -223 287
-287 164 -80 -2 -75 2198 -75 2200 0 2034 -5 2198 75 130 64 223 157 287 287
80 164 75 -2 75 2198 0 2200 5 2034 -75 2198 -64 130 -157 223 -287 287 -164
80 3 75 -2203 74 -1644 0 -1981 -3 -2035 -15z m4021 -194 c181 -34 334 -187
369 -369 14 -74 14 -3888 0 -3962 -35 -182 -188 -335 -369 -369 -75 -14 -3889
-14 -3962 0 -182 35 -335 188 -369 369 -14 74 -14 3888 0 3962 16 85 72 188
135 248 58 55 154 106 226 120 64 13 3903 13 3970 1z"/>
<path d="M865 3571 c-76 -34 -123 -116 -112 -195 9 -60 111 -410 153 -524 60
-161 138 -318 169 -338 60 -39 138 -7 151 62 5 27 -5 57 -53 161 -74 158 -99
228 -167 463 l-53 185 220 3 c188 2 222 0 237 -13 10 -9 37 -71 60 -138 122
-349 269 -615 477 -861 107 -125 170 -150 263 -103 56 28 87 73 95 141 11 82
-1 715 -13 762 -14 52 -43 117 -77 172 l-26 42 280 0 281 0 0 -397 c0 -219 5
-416 10 -437 18 -78 84 -136 155 -136 74 0 129 26 194 93 200 208 384 495 529
830 l21 47 225 0 c124 0 226 -3 226 -6 0 -9 -170 -324 -224 -414 -27 -47 -104
-161 -170 -255 -139 -199 -156 -231 -156 -305 0 -92 23 -124 213 -313 174
-172 255 -271 356 -432 37 -59 51 -89 44 -96 -16 -16 -421 -8 -453 9 -14 8
-131 120 -260 250 -157 158 -254 248 -292 270 -66 39 -187 82 -229 82 -38 0
-97 -25 -127 -53 -53 -49 -56 -66 -62 -312 l-5 -230 -25 -12 c-36 -17 -225 1
-348 33 -238 62 -440 180 -651 379 -47 45 -96 87 -108 93 -66 36 -143 -12
-143 -88 0 -39 5 -47 68 -107 338 -326 651 -481 1037 -512 172 -14 237 2 307
76 60 63 68 98 68 321 0 162 3 202 13 202 8 0 42 -14 76 -31 51 -26 102 -72
296 -268 258 -261 287 -282 413 -301 110 -17 456 -9 503 13 89 40 142 145 120
240 -26 119 -230 394 -460 621 -85 84 -151 156 -151 167 0 10 63 108 141 219
133 190 356 575 395 684 29 81 7 165 -59 223 -57 50 -91 55 -370 51 -239 -3
-254 -4 -294 -25 -59 -32 -86 -71 -154 -218 -106 -232 -235 -436 -393 -624
l-71 -84 -5 409 c-5 442 -5 438 -62 491 -54 51 -73 53 -435 53 -376 0 -390 -3
-446 -69 -55 -66 -49 -150 17 -248 78 -116 79 -124 84 -418 2 -143 2 -282 0
-309 l-3 -48 -66 83 c-100 126 -174 245 -244 392 -54 113 -89 201 -182 456
-22 60 -87 124 -148 144 -40 14 -92 17 -304 17 -227 0 -261 -3 -296 -19z"/>
<path d="M1284 2381 c-12 -5 -31 -22 -44 -38 -29 -37 -23 -98 15 -130 76 -66
193 15 155 106 -22 55 -78 82 -126 62z"/>
<path d="M1190 667 c-14 -6 -33 -29 -43 -50 -18 -36 -18 -38 0 -74 10 -21 29
-44 43 -50 19 -10 126 -12 462 -11 l438 3 27 27 c38 39 38 97 0 136 l-27 27
-438 3 c-336 1 -443 -1 -462 -11z"/>
<path d="M2465 671 c-37 -15 -58 -49 -58 -91 0 -75 75 -120 141 -86 109 57 31
223 -83 177z"/>
</g>
</svg>
